<svg xmlns="http://www.w3.org/2000/svg" width="58" height="24" viewBox="0 0 58 24" fill="none"><path fill-rule="evenodd" clip-rule="evenodd" d="M22.9582 0.880371L30.9672 23.9157H37.3214L29.0338 0.880371H22.9582Z" fill="#464342"></path><path fill-rule="evenodd" clip-rule="evenodd" d="M34.8416 9.8602L38.5544 2.99512L46.1555 23.9159H39.8797L34.8416 9.8602Z" fill="#464342"></path><path fill-rule="evenodd" clip-rule="evenodd" d="M44.3407 11.7364L46.8343 18.7657L57.3832 0.880371H50.9735L44.3407 11.7364Z" fill="#464342"></path><path fill-rule="evenodd" clip-rule="evenodd" d="M20.2706 0.880371L22.0085 5.756H9.10452C7.75301 5.756 7.26813 9.30382 9.10452 9.30382H21.1542C25.1117 9.97752 26.1477 12.4598 26.2524 15.5208C25.789 21.4906 22.2994 23.9157 19.0623 23.9157H0L2.35697 19.1274H19.0623C21.6514 18.9466 21.2943 14.8863 19.5056 14.8863H6.86483C3.84087 14.4161 1.93367 12.5156 1.974 8.12071C2.01233 3.95043 5.61645 1.06274 8.45647 0.880371H20.2706Z" fill="#6F6A69"></path></svg>